<?xml version="1.0" standalone="no"?>
<!DOCTYPE svg PUBLIC "-//W3C//DTD SVG 20010904//EN"
 "http://www.w3.org/TR/2001/REC-SVG-20010904/DTD/svg10.dtd">
<svg version="1.0" xmlns="http://www.w3.org/2000/svg"
 width="1088.000000pt" height="1088.000000pt" viewBox="0 0 1088.000000 1088.000000"
 preserveAspectRatio="xMidYMid meet">
<metadata>
Created by potrace 1.11, written by Peter Selinger 2001-2013
</metadata>
<g transform="translate(0.000000,1088.000000) scale(0.100000,-0.100000)"
fill="#000000" stroke="none">
<path d="M5327 10264 c-1 -1 -32 -5 -69 -8 -37 -4 -77 -9 -90 -12 -13 -4 -31
-7 -40 -7 -10 -1 -18 -5 -18 -10 0 -4 -4 -6 -9 -3 -14 9 -175 -49 -272 -98
-167 -85 -326 -220 -441 -376 -48 -65 -185 -292 -259 -430 -13 -25 -27 -47
-30 -50 -3 -3 -23 -36 -44 -75 -21 -38 -41 -72 -44 -75 -3 -3 -13 -19 -22 -35
-30 -59 -64 -120 -69 -125 -3 -3 -14 -23 -25 -45 -11 -22 -22 -42 -25 -45 -14
-14 -39 -60 -33 -60 5 0 3 -4 -3 -8 -6 -4 -21 -27 -35 -52 -13 -25 -27 -47
-30 -50 -4 -3 -9 -15 -13 -27 -4 -13 -12 -23 -17 -23 -5 0 -9 -4 -9 -8 0 -5
-40 -79 -90 -166 -49 -86 -90 -161 -90 -167 0 -5 -4 -9 -10 -9 -5 0 -10 -4
-10 -10 0 -5 -18 -39 -40 -75 -22 -36 -40 -67 -40 -69 0 -2 -19 -35 -42 -72
-53 -88 -95 -162 -111 -194 -6 -14 -17 -31 -24 -38 -7 -7 -13 -20 -13 -28 0
-8 -4 -14 -10 -14 -5 0 -10 -5 -10 -11 0 -6 -20 -45 -45 -86 -25 -40 -45 -76
-45 -78 0 -3 -15 -28 -33 -57 -19 -29 -37 -60 -41 -68 -4 -8 -12 -24 -19 -35
-7 -11 -27 -47 -46 -80 -19 -33 -37 -62 -40 -65 -3 -3 -7 -11 -9 -19 -1 -7
-14 -29 -29 -47 -14 -19 -23 -34 -19 -34 3 0 -10 -25 -29 -55 -20 -30 -40 -65
-45 -77 -6 -13 -28 -52 -50 -87 -22 -34 -40 -65 -40 -68 0 -3 -9 -18 -21 -34
-11 -16 -17 -29 -13 -29 4 0 -1 -7 -12 -15 -10 -8 -15 -15 -11 -15 5 0 -1 -13
-12 -29 -12 -16 -21 -34 -21 -40 0 -6 -4 -11 -9 -11 -5 0 -14 -12 -20 -27 -6
-16 -29 -57 -51 -93 -22 -36 -43 -72 -47 -80 -4 -8 -26 -48 -50 -88 -24 -41
-43 -78 -43 -83 0 -5 -4 -9 -8 -9 -5 0 -14 -16 -22 -35 -8 -19 -17 -35 -21
-35 -4 0 -12 -12 -18 -27 -15 -37 -62 -117 -73 -124 -5 -3 -9 -9 -9 -13 1 -12
-33 -76 -41 -76 -4 0 -8 -4 -8 -10 0 -8 -155 -279 -439 -770 -37 -63 -70 -122
-74 -130 -4 -8 -15 -28 -26 -45 -10 -16 -28 -48 -41 -70 -12 -22 -37 -65 -56
-96 -19 -31 -34 -62 -34 -68 0 -6 -4 -11 -9 -11 -5 0 -12 -8 -15 -17 -3 -10
-12 -27 -19 -38 -14 -23 -131 -225 -155 -270 -10 -16 -20 -32 -25 -33 -4 -2
-5 -7 -2 -12 3 -4 -2 -13 -10 -20 -8 -7 -15 -19 -15 -26 0 -8 -4 -14 -8 -14
-4 0 -13 -12 -19 -27 -7 -16 -23 -46 -37 -68 -14 -22 -33 -56 -43 -75 -9 -19
-20 -37 -24 -40 -3 -3 -19 -29 -35 -58 -16 -29 -33 -61 -39 -70 -5 -9 -25 -44
-44 -77 -19 -33 -37 -62 -40 -65 -3 -3 -7 -12 -9 -20 -2 -8 -9 -22 -16 -30 -7
-8 -30 -46 -52 -85 -21 -38 -43 -78 -49 -87 -5 -9 -17 -29 -26 -45 -8 -15 -23
-40 -33 -55 -10 -16 -15 -28 -10 -28 4 0 -1 -7 -12 -15 -10 -8 -14 -15 -9 -15
6 0 6 -3 -1 -8 -6 -4 -37 -54 -69 -112 -32 -58 -74 -128 -92 -157 -18 -29 -33
-54 -33 -57 0 -2 -34 -62 -75 -131 -41 -70 -75 -129 -75 -131 0 -3 -12 -23
-27 -47 -15 -23 -28 -44 -28 -47 0 -3 -8 -16 -17 -30 -71 -111 -174 -309 -205
-395 -6 -16 -14 -39 -19 -50 -9 -25 -14 -45 -16 -68 -1 -9 -6 -17 -11 -17 -4
0 -7 -6 -5 -13 1 -6 -1 -28 -5 -47 -15 -78 -20 -140 -19 -250 1 -103 7 -195
12 -195 1 0 4 -13 6 -30 3 -16 12 -55 20 -85 8 -30 16 -62 19 -71 7 -31 56
-147 80 -190 13 -24 31 -58 40 -74 27 -54 158 -220 214 -271 29 -27 62 -57 72
-66 78 -73 311 -201 404 -224 17 -4 35 -9 40 -13 19 -11 149 -38 230 -47 77
-9 8193 -10 8302 -1 206 17 413 93 596 217 88 59 257 216 257 237 0 8 5 11 10
8 6 -3 10 -2 10 4 0 5 6 16 13 23 6 8 17 21 22 29 6 9 23 35 38 59 94 140 153
291 192 490 2 8 4 15 5 15 6 0 16 264 10 285 -1 3 -3 25 -5 50 -5 69 -36 205
-46 208 -5 2 -7 8 -4 13 7 11 -70 201 -102 251 -12 21 -23 40 -23 44 0 3 -13
25 -28 48 -15 22 -34 56 -41 74 -7 17 -16 32 -20 32 -4 0 -12 12 -19 27 -6 16
-20 42 -30 58 -11 17 -29 48 -42 70 -77 136 -146 254 -162 278 -11 15 -16 27
-12 27 4 0 0 8 -8 18 -9 9 -27 37 -40 62 -63 114 -91 160 -99 166 -5 3 -7 10
-4 15 4 5 1 9 -4 9 -6 0 -11 5 -11 10 0 6 -11 27 -23 48 -13 20 -37 60 -52 87
-45 80 -88 155 -110 191 -11 18 -30 51 -42 73 -42 76 -48 86 -53 91 -3 3 -14
23 -25 45 -11 22 -22 42 -25 45 -3 3 -11 16 -19 30 -8 14 -55 95 -104 180 -49
85 -101 175 -115 200 -31 55 -63 109 -80 135 -7 11 -17 32 -23 48 -6 15 -15
27 -20 27 -5 0 -9 4 -9 9 0 5 -19 42 -43 83 -24 40 -46 80 -50 88 -4 8 -15 29
-26 45 -23 38 -55 94 -94 165 -17 30 -34 57 -39 58 -4 2 -8 8 -8 12 0 5 -31
63 -70 129 -38 66 -70 125 -70 131 0 5 -4 10 -8 10 -4 0 -20 25 -36 55 -15 30
-32 57 -37 61 -5 3 -7 10 -4 15 4 5 1 9 -4 9 -6 0 -11 4 -11 10 0 5 -18 39
-40 75 -22 36 -40 67 -40 69 0 2 -24 43 -53 92 -48 79 -68 114 -126 217 -9 16
-20 36 -26 45 -5 9 -52 91 -104 182 -52 91 -100 172 -108 181 -7 9 -10 19 -6
22 3 4 2 7 -3 7 -6 0 -21 22 -35 50 -13 27 -28 50 -32 50 -5 0 -5 5 -2 10 3 6
1 10 -4 10 -6 0 -11 4 -11 10 0 5 -25 50 -55 101 -30 50 -55 93 -55 94 0 2
-19 36 -43 77 -24 40 -55 94 -69 119 -48 85 -53 94 -59 99 -3 3 -12 20 -20 38
-8 17 -17 32 -21 32 -5 0 -8 6 -8 14 0 7 -9 25 -21 40 -11 14 -17 26 -12 26 4
0 3 4 -3 8 -6 4 -21 25 -33 47 -12 22 -25 47 -31 55 -52 83 -168 290 -162 290
4 0 2 4 -4 8 -11 6 -58 84 -86 142 -7 14 -15 27 -18 30 -3 3 -21 32 -40 65
-49 88 -62 111 -117 205 -84 145 -107 185 -105 188 1 1 -2 8 -8 15 -17 19
-160 268 -160 278 0 5 -4 9 -8 9 -4 0 -15 15 -23 33 -22 44 -53 101 -60 107
-3 3 -12 20 -20 38 -8 17 -17 32 -21 32 -5 0 -8 5 -8 10 0 6 -19 43 -43 83
-24 39 -75 126 -112 192 -38 66 -72 122 -75 125 -3 3 -16 28 -30 55 -13 28
-27 52 -31 55 -3 3 -19 29 -35 59 -16 30 -33 61 -39 70 -5 9 -25 43 -44 76
-56 99 -149 222 -220 293 -65 65 -139 132 -146 132 -2 0 -32 19 -66 41 -67 45
-237 129 -261 129 -8 0 -18 4 -24 9 -5 5 -22 12 -39 15 -16 2 -45 9 -63 15
-18 5 -35 10 -37 10 -3 0 -21 3 -39 7 -19 3 -52 7 -73 9 -21 2 -38 4 -38 5 0
3 -205 6 -208 4z"/>
</g>
</svg>
