<svg viewBox="233.5106264 78 682.96979866 695.5" xmlns="http://www.w3.org/2000/svg" xmlns:blush="http://design.blush" overflow="visible" width="981.98389455" height="1000">
  <g fill="none" fill-rule="evenodd">
    <g blush:width="600" blush:height="550" blush:component="Upper Body">
      <path d="M832.1609 152.6486473c9.719-15.647 2.215-19.392-3.191-16.093 0 0 9.362-11.507 4.75-16.491-2.881-3.113-5.906-2.678-13.599 4.365 0 0 8.766-12.902 3.763-17.864-4.643-4.60500002-11.031 3.96-16.647 10.521 0 0 5.169-16.07900002-3.634-16.78900002-8.711-.703-21.206 24.89100002-26.455 35.44800002 1.779-12.863-5.792-24.921-10-19.34-5.2 6.899-26.184 73.783-57.935 131.1899997-40.361 65.621-90.36 60.357-90.36 60.357l26.85 88.918s7.874 4.301 38.627-12.876c55.732-31.13 88.165-95.476 102.549-131.073 1.338-.793 2.149-1.576 2.327-2.311 1.231-5.06 2.615-10.026 4.108-14.889 1.495-4.372 2.31-7.104 2.488-7.709 11.375-33.6029997 27.547-61.1779997 36.359-75.3639997" fill="#FFF"/>
      <path d="M833.7356 130.4122473c2.6-4.343 5.269-10.769 1.545-14.792-2.753-2.974-5.649-3.169-9.033-1.464 5.227-13.58300002-6.594-19.13800002-15.432-7.489.5-5.12900002-1.186-11.12000002-7.041-11.48900002-7.65-.62-16.233 12.73400002-24.598 28.84700002-1.425-8.766-6.974-18.614-13.728-11.9-12.875 29.345-30.649 81.092-54.396 124.8359997-.188.339-1.044 2.12-1.293 2.546-19.088 32.624-40.439 48.123-55.992 55.46-9.155 4.318-17.273 6.323-23.351 7.234l1.202 4.142c6.278-.989 14.442-3.074 23.684-7.398 33.256-15.559 54.505-48.065 66.713-73.473.369-.768 1.966-4.672 2.311-5.381 18.937-38.8809997 33.965-80.2139997 44.52-105.4059997 3.093-2.335 7.563 9.118 6.195 17.769-.199 2.344-.136 4.577.502 6.87.379 2.172 2.457 3.702 4.067 5.182 6.052 5.563 3.891 15.662 3.755 16.254-.142.621-.159 1.027-.383 1.486-.635 1.24 1.09 2.186 1.793 1.02 4.426-7.624.813-17.55-4.475-23.779-.931-1.78-1.215-4.557-.868-6.56 4.187-8.429 16.928-34.08000002 24-33.51100002 5.272.959 2.832 9.59600002 1.85 13.78700002l-10.507 16.858c-.475.761-.242 1.763.519 2.238.737.459 1.702.252 2.193-.452 0 0 11.435-16.46 11.435-16.461 3.851-3.924 9.483-13.18800002 13.464-10.31000002 4.557 7.28700002-11.859 25.63100002-15.239 32.47100002-1.171 1.75 1.544 3.601 2.745 1.868l11.824-16.563c7.845-7.144 9.166-5.722 10.442-4.343 2.53 2.733-2.168 10.414-4.839 13.706-.007.015-9.194 11.586-9.204 11.601-1.201 1.471 1.025 3.392 2.306 1.989l9.865-10.547c6.212-2.717 5.839 3.753.069 13.27-5.792 6.18-31.834 59.3719997-38.621 82.3709997-.474 1.606-2.901 8.049-3.453 9.525-4.217 11.271-10.919 27.396-20.339 44.956-29.425 54.848-62.274 81.26-84.65 93.758-12.738 7.114-21.397 10.431-27.091 11.925l1.19 4.101c7.461-1.97 16.844-6.096 27.975-12.314 41.465-23.16 69.854-64.74 86.369-95.544 8.988-16.764 15.529-32.245 19.824-43.528.29-.762 6.056-17.405 6.264-18.105 8.238-24.354 20.351-49.4779997 36.144-74.9029997 7.717-13.169 5.963-18.506-.232-20.358" fill="#141414"/>
      <path d="M448.7911 312.019c-40.751-7.524-77.187-32.168-100.799-88.183l-.229-.046c-21.6189999-56.0590001-33.6189999-114.0860001-37.6949999-120.8540001-3.606-5.988-12.387 5.22-11.952 18.198-4.125-11.045-13.898-37.79700001-22.636-38.00290977-8.829-.20409024-5.355 16.32390977-5.355 16.32390977-4.905-7.108-10.37-16.29000001-15.466-12.19100001-5.491 4.41700001 1.89 18.15800001 1.89 18.15800001-6.921-7.802-9.884-8.549-13.07200002-5.752-5.105 4.479 3.01300002 16.894 3.01300002 16.894-5.03500002-3.841-12.88700002-.895-4.84300002 15.676C250.5201001 150.5159999 268.1781001 189.624 274.2101001 234.129c.123.909 1.155 1.984 2.938 3.138 29.2 100.543 93.1669999 142.719 145.3419999 163.823l26.301-89.071z" fill="#FFF"/>
      <path d="M423.108 395.999c-59.499-24.181-127.6679999-72.758-150.7309999-188.638-.103-.519-.819-2.898-1.088-4.058-7.286-26.8810001-23.349-69.2180001-27.72900002-74.9910001-4.753-10.063-4.452-16.537 1.444-13.19l8.71800002 11.512c1.129 1.53 3.542-.151 2.5-1.738-.009-.016-7.946-12.477-7.951-12.494-2.31600002-3.551-6.19100002-11.677-3.39200002-14.133 1.41200002-1.24 2.87400002-2.517 9.93500002 5.403l10.043 17.699c1.015 1.849 3.907.289 2.924-1.573-2.653-7.154-17.077-27.102-11.79-33.87700001 4.258-2.449 8.9 7.34900001 12.324 11.65200001-.001 0 9.665 17.558 9.665 17.558.415.751 1.354 1.057 2.134.677.807-.393 1.141-1.366.749-2.172l-8.703-17.858c-.542-4.27-2.072-13.11300001 3.27-13.51900001 7.094.166 17.106 27.00100001 20.396 35.81900001.137 2.027-.434 4.76-1.545 6.434-5.905 5.647-10.527 15.145-6.916 23.187.578 1.232 2.564.421 2.061-.879-.176-.48-.494-.971-.399-1.467.114-.597-1.175-10.872 5.421-15.778 1.754-1.305 3.979-2.61 4.582-4.732.872-2.214 1.167-4.428 1.212-6.781-.464-8.746 5.171-19.673 8.005-17.03 9.198 30.509 21.13 80.5340001 40.0549999 126.5500001.251.659 1.65 3.321 2.245 4.468 14.373 29.762 33.765 51.323 57.672 64.771 12.152 6.835 25.401 11.566 39.96 14.272l1.216-4.118c-45.717-8.301-78.489-36.819-99.509-86.681-.127-.303-.272-.575-.486-1.044-16.9249999-43.6230001-28.4259999-92.0140001-37.5079999-120.4110001-6.022-7.38-12.562 1.84-14.888 10.411-6.649-16.893-13.8-31.066-21.474-31.243-5.861-.239-8.159 5.54399999-8.195 10.697-7.582-12.50200001-19.915-8.20400001-16.125 5.848-3.189-2.047-6.09000002-2.153-9.13600002.519-4.121 3.616-2.133 10.283.002 14.873-6.353 1.199-8.652 6.326-2.342 20.224C254.3670001 160.3119999 262.6420001 184.951 269.6870001 215.007c.536 2.287 1.947 6.801 2.796 10.283 13.882 57.021 39.807 98.522 76.3309999 130.685 24.151 21.268 50.282 34.927 73.076 44.15l1.218-4.126z" fill="#141414"/>
      <path d="M639.2466 383.113c-.264-1.144.45-2.286 1.595-2.55 1.143-.265 2.286.451 2.55 1.595l6.237 27.076c36.853-9.01 43.433-24.417 43.433-24.417S687 336 662 289c-66 6-84-3-94-3-20-7-59.001666-4.8270693-81 2-29 9-33 11-66.5454 6.957-3.984 16.552-25.338 59.328-45.083 93.25C389 397 401.3926 401.23 426.2966 407.934l1.392-20.971c.078-1.171 1.096-2.045 2.263-1.981 1.171.078 2.059 1.091 1.981 2.263l-1.798 27.103c-.003.04-.014.076-.019.115-1.931 77.19-4.458 166.784-4.458 166.784l256.03-4s-27.1-113.073-35.573-164.337c-.003-.013-.009-.024-.012-.037l-6.856-29.76z" fill="#FF4B33"/>
      <g>
        <path d="M510.54029957 257.64159953l-3.766 35.16299997s7.427 16.097 30.21100003 17.2c30.738 1.487 24.305-17.558 24.305-17.558l-.855-31.75699997" fill="#FFF"/>
        <path d="M536.8879996 312.0023995c-23.72200003-1.148-31.60600003-17.657-31.93000003-18.359-.151-.328-.211-.692-.173-1.051l3.767-35.16399997c.117-1.098 1.109-1.893 2.201-1.776 1.098.118 1.894 1.104 1.776 2.202l-3.703 34.57399997c1.389 2.575 8.90900003 14.642 28.25600003 15.578 10.251.493 19.116-1.336 21.855-5.298 2.81-4.064.545-9.406.522-9.459-.102-.235-.161-.494-.168-.749l-.855-31.75599997c-.03-1.104.841-2.024 1.946-2.053 1.095-.042 2.023.841 2.053 1.945l.845 31.39799997c.612 1.613 2.538 7.713-1.028 12.913-3.253 4.743-11.971 7.139-21.992 7.139-1.085 0-2.209-.028-3.372-.084z" fill="#141414"/>
      </g>
    </g>
    <g blush:width="180" blush:height="200" blush:component="Head">
      <path d="M587.1674 188.6128998c-11.446-50.159-44.0470005-53.78-67.6650005-49.486-18.823 3.422-37.102 19.605-34.97 50.912-6.644-6.395-16.093-2.499-17.857 4.839-2.058 8.567 3.376 28.0240002 17.328 25.5610002 1.344 22.995 20.35 56.682 58.054 56.373 41.0700005-.336 55.2550005-43.74 45.1100005-88.1990002" fill="#FFF"/>
      <path d="M513.2019995 124.8733998c13.455-18.72999995 29.513-20.82199995 36.758-11.40299995 5.8520005 7.60699995 7.5160005 8.52799995 13.3920005 4.048 15.138-11.541 23.407-.936 24.363 13.78699995 12.442 2.792 10.738 18.986.452 27.649 5.072 8.503 8.232 33.717 3.336 42.982C594.331 225.9034 589.816 247.5674 578.708 261.6124c-25.9050005 32.732-77.8210005 14.431-90.2710005-17.449-12.031-4.008-36.784-31.227-23.43-78.8800002-1.917-1.781-12.726 2.177-10.772-1.678.561-1.106 9.129-3.149 11.774-3.937.236-.576-3.907-28.796 3.6-8.835 18.978-28.152 32.674-10.759 43.593-25.96zm31.152 35c-6.045-2.396-13.626 8.124-29.937 5.083-19.574-3.65-20.138 7.099-17.736 19.262 3.693 18.701-9.059 12.895-13.018 7.618-2.626-2.369-5.812-3.721-9.074-2.686-10.375 3.699-6.636 18.679-.542 26.0160002 4.461 5.89 10.993 1.091 11.952 5.155 7.124 70.114 103.7260005 76.401 102.3320005-3.711.14-17.2440002-4.139-38.2230002-12.459-52.4690002-9.208 1.645-20.512.096-31.5180005-4.268zm-66.9737 37.909c1.075-.175 2.53.513 2.949 3.09.42 2.577-.512 5.108-1.587 5.283-1.075.174-2.287-1.773-2.706-4.35-.419-2.577.269-3.848 1.344-4.023z" fill="#141414"/>
    </g>
    <g blush:width="90" blush:height="90" blush:component="Face">
      <path d="M530.6079004 243.6808997c12.874 5.515 33.455-7.378 42.783-1.282 13.252 23.891-71.78799995 23.292-47.306.631 1.58-.566 3.086.078 4.523.651zm19.737 3.944c-2.049.351-4.122.652-6.204.831.111 2.921.119 5.842-.191 8.751 2.209.026 4.424-.066 6.622-.256.328-.032.658-.071.986-.108-1.201-2.827-1.447-6.167-1.213-9.218zm-13.903.894c.144.176-.634 7.694-.744 7.963 2.061.372 4.145.572 6.245.671-.105-2.864.107-5.717.41-8.564-1.954.113-3.931.108-5.911-.07zm20.946-2.271c-1.76.377-3.538.736-5.333 1.069 1.075 2.206.844 4.824 1.084 7.224-.014.706.165 1.392-.232 2.138 2.339-.309 4.658-.752 6.9-1.372-2.08-2.26-1.767-6.136-2.419-9.059zm-23.707 1.893c-2.246.122-5.835-2.791-7.366-1.349-1.785 1.887-1.569 5.498.892 6.801 1.614 1.103 3.656 1.776 5.59 2.275.058-.166.659-7.9.884-7.727zm30.753-3.302c-1.461.235-2.965.53-4.449.848.73 2.898 2.288 6.032 1.795 9.018.747-.249 1.488-.512 2.209-.808.756-.317 1.488-.678 2.196-1.063-.741-2.63-1.328-5.295-1.751-7.995zm4.985 5.668c3.299-3.806 1.917-7.046-3.272-5.904.686 2.38 1.232 4.791 1.662 7.229.584-.411 1.138-.843 1.61-1.325zm-22.1046-31.1114c-.402-1.874-2.343-22.484 2.266-15.646.463 5.006.573 10.164 1.634 15.051 10.893 4.148 6.794 16.694-4.284 15.435-2.571.031-2.584-4.011-.018-4 2.163-.052 5.402-.334 6.354-2.218 1.573-5.51-5.642-4.23-5.952-8.622zm-31.15689995-10.287c2.21099995-3.033 5.93199995-5.192 9.86099995-4.82 8.024.626 7.446 8.536 2.345 5.736-.687-.794-1.654-1.331-2.8-1.501-7.452-.947-7.322 8.629-10.77199995 7.521-2.65-1.563.32-5.041 1.366-6.936zm50.90039995-11.8955c3.704-1.006 14.433 4.158 10.199 8.416-.889.437-1.944.144-2.491-.646-3.695-5.437-11.728-4.263-15.544.576-.556.578-1.475.595-2.053.04-1.489-3.963 6.29-8.264 9.889-8.386zm-58.40109995-3.22699999c2.447-2.719 15.73599995-4.907 15.96699995-.122-.823 1.691-3.223.702-4.697 1.18-3.35799995.293-6.54699995 1.72599999-9.85399995 2.19999999-1.797.296-2.821-2.16999999-1.416-3.25799999zm51.44769995-3.1168c-5.715-1.703 4.002-5.437 6.274-4.796 2.908-.668 12.152 3.627 5.895 5.614-4.035-.671-8.06-2.083-12.169-.818z" fill="#141414"/>
      <path d="M525.7138004 228.2314997c2.445-1.141 4.21 2.655 1.77 3.793-2.446 1.141-4.21-2.654-1.77-3.793zm-9.45009995 3.6157c-3.892-.66.403-5.689 1.74499995-2.479.841 1.269-.14499995 3.066-1.74499995 2.479zm52.16519995-12.064c2.469-.02 2.506 3.816.032 3.837-2.469.021-2.505-3.815-.032-3.837zm-46.9199 1.3222c1.48-.69 2.549 1.608 1.071 2.297-1.481.69-2.55-1.607-1.071-2.297zm7.3444-2.5362c2.019-.941 3.476 2.193 1.461 3.133-2.02.941-3.477-2.192-1.461-3.133zm46.3995-.8846c-.156-3.186 5.382-.718 2.422 1.362-1.093 1.118-2.616.019-2.422-1.362zm-13.2334-4.6572c2.039-.017 2.069 3.151.026 3.168-2.038.018-2.068-3.15-.026-3.168zm7.0781-.7988c1.495-.013 1.518 2.311.02 2.323-1.496.013-1.517-2.31-.02-2.323z" fill="#aaa"/>
    </g>
    <g blush:width="900" blush:height="614" blush:component="Lower Body Sit">
      <path d="M614.0603982 683.825869s-52.67199995 30.81-50.11099995 60.259 25.44799995 28.809 36.01099995 28.329c26.247-1.193 54.898-24.127 54.898-24.127l-40.798-64.461z" fill="#eee"/>
      <path d="M600.6853982 757.798469c-.452 0-.907-.152-1.281-.465-11.63-9.71-15.185-21.826-15.33-22.338-.303-1.061.313-2.169 1.375-2.471 1.061-.302 2.168.312 2.471 1.374.057.195 3.441 11.509 14.048 20.365.848.708.961 1.969.253 2.817-.395.474-.964.718-1.536.718M615.0500982 749.014369c-.452 0-.907-.152-1.281-.465-13.359-11.154-17.438-25.056-17.605-25.643-.303-1.062.313-2.169 1.375-2.472 1.06-.301 2.167.311 2.471 1.373.038.132 3.949 13.34 16.323 23.672.848.708.961 1.969.253 2.817-.395.474-.964.718-1.536.718" fill="#141414"/>
      <path d="M565.504698 555.5040685s85.625-39.914 191.526-54.47599995c102.431-14.08400005 118.107 52.56799995 93.468 102.43100045-53.775 108.833-193.407 157.518-193.407 157.518-75.659-38.227-50.3-129.093-91.587-205.4730005" fill="#0B379B"/>
      <path d="M652.619998 640.506969c-.616 0-1.225-.284-1.616-.819-.653-.892-.458-2.143.433-2.795.694-.507 69.544-51.1530005 90.156-90.9230005.507-.98 1.714-1.364 2.695-.855.981.508 1.364 1.715.855 2.696-8.85 17.078991-26.925 37.814-53.723 61.6290005-19.895 17.681-37.446 30.553-37.621 30.681-.357.261-.77.386-1.179.386" fill="#FFF"/>
      <g>
        <path d="M768.5574988 708.0562686s-14.476 9.848.301 25.887c7.147 7.7590004 93.3530002 42.0420004 121.0370002 24.5410004 12.788-8.084 15.698-17.168 17.036-21.043-14.524-4.4250004-138.3740002-29.3850004-138.3740002-29.3850004" fill="#141414"/>
        <path d="M798.2156988 654.7477686c17.295-1.107 49.8010002 13.793 89.9530002 34.057 40.272 20.323 24.436 63.4220004-12.285 65.9110004-21.72 1.472-76.0570002-11.055-100.9130002-26.1170004-19.281-11.684-12.952-34.479-8.67-43.466 6.323-13.269 20.012-29.623 31.915-30.385" fill="#eee"/>
        <path d="M840.561399 722.9586686c-.023-.001-.049-.002-.074-.005-1.047-.083-1.8280002-1-1.7440002-2.048 1.5420002-19.366 11.5670002-32.041 11.9920002-32.571.658-.817 1.853-.949 2.676-.291.818.658.948 1.854.292 2.674-.097.12-9.723 12.341-11.168 30.491-.081 1.022-.957 1.791-1.974 1.75M860.101399 726.5689686c-.024-.001-.05-.002-.074-.005-1.047-.083-1.829-1-1.745-2.048 1.143-14.365 8.594-23.786 8.911-24.179.658-.819 1.854-.95 2.675-.291.818.658.949 1.853.293 2.671-.071.089-7.039 8.953-8.087 22.102-.081 1.022-.957 1.791-1.973 1.75" fill="#141414"/>
        <path d="M777.3455988 638.0006686s47.4 32.669 50.251 41.063c5.975 17.591-3.466 32.13-15.181 36.917-21.728 8.879-70.69399996-21.602-70.69399996-21.602" fill="#FFF"/>
        <path d="M805.9236988 719.4693686c-24.13 1.997-63.42299996-22.25-65.25899996-23.393-.938-.584-1.224-1.818-.641-2.755.584-.936 1.818-1.223 2.755-.641.122.076 12.32499996 7.638 26.98199996 14.014 19.043 8.283 33.532 10.852 41.899 7.435 10.955-4.475 19.6-18.061 14.043-34.422-1.922-5.658-31.377-27.574-49.492-40.06-.909-.627-1.139-1.872-.512-2.782.626-.91 1.871-1.139 2.782-.511.12.082 12.026 8.298 24.127 17.434 22.322 16.854 26.032 22.13 26.882 24.632 6.344 18.677-3.672 34.245-16.317 39.411-2.192.897-4.634 1.422-7.249 1.638" fill="#141414"/>
      </g>
      <g>
        <path d="M422.59359847 600.616869c8.053-169.115 165.52699953-90.357 196.48899953-74.444 100.671 51.743 202.956 114.966 202.956 114.966 2.883 52.664-56.039 99.891-91.94 105.138l-124.638-62.598s-31.654 45.532-88.4569995 43.122c-74.464-3.16-98.45600003-41.216-94.41000003-126.184" fill="#02BAD3"/>
        <path d="M605.565798 683.758469c-6.242-3.295-48.32-25.719-69.347-42.303-.868-.684-2.126-.536-2.809.332-.684.867-.535 2.125.332 2.809 20.634 16.274 61.05 37.979 69.274 42.339.929-1.055 1.882-2.202 2.55-3.177" fill="#FFF"/>
      </g>
    </g>
    <path d="M568.2051 220.2671c-9.315 0-16.34-7.253-16.34-16.871 0-9.592 7.487-17.396 16.691-17.396 9.555 0 17.041 7.339 17.041 16.708 0 9.518-7.965 17.559-17.392 17.559m-51.98 6.687c-9.337 0-17.225-9.037-17.225-19.732 0-9.846 8.265-17.855 18.424-17.855 9.666 0 17.53 8.609 17.53 19.192 0 9.971-8.577 18.395-18.729 18.395m52.331-44.954c-8.768 0-16.259 5.677-19.268 13.655-3.714-.274-10.353.59-13.247 1.277-3.732-6.908-10.677-11.565-18.617-11.565-12.365 0-22.424 9.804-22.424 21.855 0 13.086 9.521 23.732 21.225 23.732 12.32 0 22.729-10.256 22.729-22.395 0-2.787-.459-5.46-1.3-7.938 2.475-.494 7.831-1.055 10.562-1.054-.219 1.244-.351 2.52-.351 3.829 0 11.704 8.935 20.871 20.34 20.871 11.596 0 21.392-9.873 21.392-21.559 0-11.612-9.243-20.708-21.041-20.708" fill="#aaa" blush:width="103" blush:height="60" blush:component="Accessories"/>
  </g>
</svg>