<?xml version="1.0" encoding="UTF-8"?>
<svg xmlns="http://www.w3.org/2000/svg" xmlns:xlink="http://www.w3.org/1999/xlink" width="32pt" height="32pt" viewBox="0 0 32 32" version="1.1">
<g id="surface1">
<path style=" stroke:none;fill-rule:nonzero;fill:rgb(8.235294%,81.960784%,86.666667%);fill-opacity:1;" d="M 30.339844 10.585938 C 30.136719 10.054688 29.910156 9.523438 29.640625 8.996094 C 29.371094 8.476562 29.070312 7.976562 28.757812 7.5 L 24.148438 8.113281 C 23.628906 7.578125 23.0625 7.101562 22.457031 6.679688 L 22.3125 2.039062 C 21.253906 1.5625 20.144531 1.203125 19.003906 0.976562 L 16.1875 4.664062 C 15.445312 4.648438 14.703125 4.710938 13.976562 4.84375 L 10.589844 1.660156 C 10.054688 1.863281 9.523438 2.089844 8.996094 2.359375 C 8.476562 2.628906 7.976562 2.929688 7.5 3.246094 L 8.117188 7.851562 C 7.578125 8.371094 7.101562 8.9375 6.679688 9.542969 L 2.039062 9.683594 C 1.558594 10.742188 1.203125 11.851562 0.972656 12.996094 L 4.664062 15.8125 C 4.648438 16.550781 4.710938 17.289062 4.84375 18.023438 L 1.660156 21.410156 C 1.863281 21.945312 2.089844 22.480469 2.359375 23.003906 C 2.628906 23.523438 2.929688 24.023438 3.246094 24.5 L 7.851562 23.886719 C 8.371094 24.425781 8.9375 24.902344 9.542969 25.320312 L 9.683594 29.960938 C 10.742188 30.441406 11.855469 30.796875 12.996094 31.023438 L 15.8125 27.335938 C 16.546875 27.351562 17.289062 27.292969 18.023438 27.160156 L 21.410156 30.339844 C 21.945312 30.136719 22.476562 29.910156 23 29.640625 C 23.523438 29.371094 24.019531 29.070312 24.496094 28.757812 L 23.882812 24.148438 C 24.421875 23.628906 24.898438 23.058594 25.320312 22.457031 L 29.960938 22.3125 C 30.4375 21.253906 30.792969 20.144531 31.023438 19.003906 L 27.335938 16.1875 C 27.351562 15.453125 27.289062 14.710938 27.160156 13.976562 L 30.339844 10.589844 Z M 18.226562 20.332031 C 17.65625 20.625 17.035156 20.804688 16.398438 20.851562 C 15.757812 20.90625 15.117188 20.835938 14.507812 20.636719 C 13.277344 20.242188 12.257812 19.375 11.664062 18.226562 C 11.074219 17.074219 10.964844 15.742188 11.363281 14.507812 C 11.757812 13.277344 12.625 12.257812 13.773438 11.664062 C 14.921875 11.078125 16.257812 10.964844 17.488281 11.363281 C 18.71875 11.757812 19.742188 12.625 20.332031 13.773438 C 20.921875 14.921875 21.03125 16.257812 20.636719 17.492188 C 20.242188 18.71875 19.371094 19.742188 18.226562 20.332031 Z M 18.226562 20.332031 "/>
</g>
</svg>
