<svg width="32" height="32" viewBox="0 0 32 32" fill="none" xmlns="http://www.w3.org/2000/svg">
<path d="M30.3417 10.5889C30.1374 10.053 29.909 9.52057 29.6405 8.99748C29.372 8.47438 29.0724 7.97845 28.7547 7.49971L24.1488 8.11403C23.6279 7.57663 23.0611 7.09874 22.4564 6.67851L22.314 2.03948C21.2539 1.56179 20.1436 1.20427 19.0039 0.973601L16.1862 4.66379C15.4447 4.65019 14.7037 4.71051 13.9742 4.84386L10.5905 1.65975C10.0533 1.86359 9.52042 2.09109 8.99732 2.35964C8.47423 2.62818 7.97829 2.92774 7.50001 3.24634L8.11522 7.85172C7.57736 8.37177 7.09902 8.9377 6.6797 9.54415L2.03795 9.68344C1.55951 10.744 1.20325 11.8543 0.97299 12.9954L4.66226 15.8113C4.64954 16.5485 4.70884 17.288 4.84234 18.0232L1.66005 21.4105C1.86344 21.9468 2.09185 22.4815 2.35994 23.0037C2.62802 23.5259 2.92758 24.0218 3.24619 24.5001L7.85248 23.8867C8.37207 24.4237 8.93846 24.9029 9.5449 25.3222L9.68463 29.9626C10.7452 30.4411 11.855 30.7964 12.9957 31.0258L15.8112 27.3379C16.5483 27.3506 17.2883 27.2922 18.024 27.1596L21.409 30.3419C21.9449 30.1376 22.4773 29.9092 23.0013 29.6402C23.5244 29.3717 24.0195 29.0726 24.4982 28.7549L23.8848 24.1486C24.4213 23.6281 24.9 23.0608 25.3203 22.4561L29.9593 22.3138C30.4378 21.2532 30.7931 20.1434 31.0234 19.0045L27.3363 16.1863C27.3504 15.4518 27.2911 14.71 27.1581 13.9735L30.3408 10.5893L30.3417 10.5889ZM18.2241 20.3326C17.6551 20.6248 17.0342 20.8022 16.3966 20.8544C15.7591 20.9067 15.1175 20.8329 14.5085 20.6372C13.2786 20.242 12.256 19.3744 11.6658 18.2252C11.0755 17.0761 10.966 15.7395 11.3612 14.5096C11.7564 13.2796 12.624 12.2571 13.7731 11.6668C14.9223 11.0766 16.2588 10.967 17.4888 11.3622C18.7187 11.7574 19.7413 12.6251 20.3315 13.7742C20.9218 14.9234 21.0313 16.2599 20.6361 17.4898C20.2409 18.7198 19.3733 19.7423 18.2241 20.3326Z" fill="#15D1DD"/>
</svg>
