<?xml version="1.0" encoding="UTF-8"?>
<svg xmlns="http://www.w3.org/2000/svg" xmlns:xlink="http://www.w3.org/1999/xlink" width="32pt" height="32pt" viewBox="0 0 32 32" version="1.1">
<g id="surface1">
<path style=" stroke:none;fill-rule:nonzero;fill:rgb(0%,0%,0%);fill-opacity:1;" d="M 11.351562 29.410156 C 11.351562 30.945312 12.625 32.195312 14.199219 32.195312 L 17.996094 32.195312 C 19.570312 32.195312 20.84375 30.945312 20.84375 29.410156 L 20.84375 28.101562 L 11.351562 28.101562 Z M 11.351562 29.410156 "/>
<path style=" stroke:none;fill-rule:nonzero;fill:rgb(0%,0%,0%);fill-opacity:1;" d="M 24.40625 15.710938 C 25.625 14.007812 26.269531 12.027344 26.269531 9.976562 C 26.269531 4.476562 21.707031 0 16.097656 0 C 10.488281 0 5.925781 4.476562 5.925781 9.976562 C 5.925781 11.929688 6.507812 13.824219 7.617188 15.460938 C 7.667969 15.554688 7.722656 15.640625 7.773438 15.703125 C 9.660156 18.335938 10.039062 19.199219 10.039062 19.734375 L 10.039062 21.640625 L 9.53125 21.640625 C 9.0625 21.640625 8.683594 21.820312 8.683594 22.382812 L 8.683594 26.007812 C 8.683594 26.570312 9.0625 26.859375 9.53125 26.859375 L 22.664062 26.859375 C 23.132812 26.859375 23.511719 26.570312 23.511719 26.007812 L 23.511719 22.382812 C 23.511719 21.820312 23.132812 21.640625 22.664062 21.640625 L 22.15625 21.640625 L 22.15625 19.734375 C 22.15625 19.285156 22.332031 18.601562 24.40625 15.710938 Z M 24.40625 15.710938 "/>
</g>
</svg>
