<?xml version="1.0" encoding="UTF-8"?>
<svg xmlns="http://www.w3.org/2000/svg" xmlns:xlink="http://www.w3.org/1999/xlink" width="32pt" height="40pt" viewBox="0 0 32 40" version="1.1">
<g id="surface1">
<path style=" stroke:none;fill-rule:nonzero;fill:rgb(0%,0%,0%);fill-opacity:1;" d="M 15.929688 29.78125 C 17.238281 29.636719 17.675781 28.695312 17.675781 28.695312 L 14.332031 28.695312 C 14.769531 29.78125 15.929688 29.78125 15.929688 29.78125 Z M 18.421875 26.019531 L 13.875 26.019531 C 13.285156 26.019531 12.808594 26.457031 12.808594 27 C 12.808594 27.535156 13.285156 27.972656 13.875 27.972656 L 18.421875 27.972656 C 19.011719 27.972656 19.488281 27.535156 19.488281 27 C 19.488281 26.457031 19.011719 26.019531 18.421875 26.019531 Z M 18.511719 23.417969 L 13.421875 23.417969 C 12.761719 23.417969 12.226562 23.855469 12.226562 24.394531 C 12.226562 24.933594 12.761719 25.371094 13.421875 25.371094 L 18.511719 25.371094 C 19.171875 25.371094 19.707031 24.933594 19.707031 24.394531 C 19.707031 23.855469 19.171875 23.417969 18.511719 23.417969 Z M 23.828125 9.8125 C 23.988281 6.515625 20.277344 2.40625 15.960938 2.625 C 15.960938 2.625 9.007812 2.230469 8.085938 9.8125 C 8.085938 9.8125 7.433594 12.574219 10.410156 16.117188 C 10.410156 16.117188 12.214844 18.1875 11.78125 20.28125 C 11.78125 20.28125 11.339844 22.078125 12.878906 22.335938 L 19.417969 22.335938 C 19.417969 22.335938 20.832031 22.039062 20.453125 20.238281 C 20.054688 18.355469 21.683594 15.902344 21.683594 15.902344 C 21.683594 15.902344 24.191406 12.964844 23.828125 9.8125 Z M 13.824219 7.609375 C 13.824219 7.609375 12.214844 8.234375 12.175781 10.269531 C 12.175781 10.269531 11.625 11.167969 10.878906 10.738281 C 10.132812 10.308594 10.367188 9.527344 10.367188 9.527344 C 10.367188 9.527344 10.484375 7.140625 12.609375 6.042969 C 12.609375 6.042969 13.574219 5.589844 14.0625 6.121094 C 14.496094 6.59375 13.824219 7.609375 13.824219 7.609375 Z M 13.824219 7.609375 "/>
</g>
</svg>
