<?xml version="1.0" encoding="UTF-8"?>
<svg xmlns="http://www.w3.org/2000/svg" xmlns:xlink="http://www.w3.org/1999/xlink" width="32pt" height="32pt" viewBox="0 0 32 32" version="1.1">
<g id="surface1">
<path style=" stroke:none;fill-rule:nonzero;fill:rgb(0%,0%,0%);fill-opacity:1;" d="M 24.617188 27.082031 C 24.617188 27.761719 24.859375 28.339844 25.339844 28.820312 C 25.820312 29.304688 26.402344 29.542969 27.082031 29.542969 C 27.761719 29.542969 28.339844 29.304688 28.820312 28.820312 C 29.304688 28.339844 29.542969 27.761719 29.542969 27.082031 C 29.542969 26.402344 29.304688 25.820312 28.820312 25.339844 C 28.339844 24.859375 27.761719 24.617188 27.082031 24.617188 C 26.402344 24.617188 25.820312 24.859375 25.339844 25.339844 C 24.859375 25.820312 24.617188 26.402344 24.617188 27.082031 Z M 24.617188 27.082031 "/>
<path style=" stroke:none;fill-rule:nonzero;fill:rgb(0%,0%,0%);fill-opacity:1;" d="M 31.640625 5.289062 C 31.398438 5.046875 31.109375 4.925781 30.773438 4.925781 L 7.675781 4.925781 C 7.664062 4.835938 7.632812 4.671875 7.585938 4.433594 C 7.542969 4.195312 7.507812 4.007812 7.480469 3.867188 C 7.457031 3.726562 7.410156 3.554688 7.335938 3.355469 C 7.269531 3.15625 7.183594 3 7.085938 2.882812 C 6.992188 2.769531 6.863281 2.667969 6.703125 2.585938 C 6.542969 2.503906 6.359375 2.460938 6.15625 2.460938 L 1.230469 2.460938 C 0.898438 2.460938 0.609375 2.585938 0.367188 2.828125 C 0.121094 3.070312 0 3.359375 0 3.695312 C 0 4.023438 0.121094 4.316406 0.367188 4.558594 C 0.609375 4.804688 0.898438 4.925781 1.230469 4.925781 L 5.152344 4.925781 L 8.558594 20.753906 C 8.535156 20.804688 8.402344 21.046875 8.164062 21.484375 C 7.929688 21.921875 7.738281 22.304688 7.597656 22.628906 C 7.457031 22.957031 7.382812 23.210938 7.382812 23.386719 C 7.382812 23.722656 7.507812 24.007812 7.75 24.257812 C 7.992188 24.496094 8.285156 24.617188 8.617188 24.617188 L 28.3125 24.617188 C 28.648438 24.617188 28.933594 24.496094 29.179688 24.257812 C 29.421875 24.007812 29.542969 23.722656 29.542969 23.386719 C 29.542969 23.054688 29.421875 22.765625 29.179688 22.523438 C 28.933594 22.28125 28.648438 22.15625 28.3125 22.15625 L 10.617188 22.15625 C 10.925781 21.539062 11.078125 21.132812 11.078125 20.929688 C 11.078125 20.796875 11.0625 20.65625 11.03125 20.503906 C 10.996094 20.351562 10.960938 20.179688 10.914062 19.992188 C 10.867188 19.808594 10.839844 19.671875 10.828125 19.582031 L 30.910156 17.234375 C 31.230469 17.195312 31.492188 17.058594 31.695312 16.820312 C 31.902344 16.585938 32.007812 16.3125 32.007812 16.003906 L 32.007812 6.15625 C 32.007812 5.820312 31.882812 5.535156 31.640625 5.289062 Z M 31.640625 5.289062 "/>
<path style=" stroke:none;fill-rule:nonzero;fill:rgb(0%,0%,0%);fill-opacity:1;" d="M 7.382812 27.082031 C 7.382812 27.761719 7.625 28.339844 8.105469 28.820312 C 8.585938 29.304688 9.167969 29.542969 9.847656 29.542969 C 10.527344 29.542969 11.105469 29.304688 11.585938 28.820312 C 12.070312 28.339844 12.308594 27.761719 12.308594 27.082031 C 12.308594 26.402344 12.070312 25.820312 11.585938 25.339844 C 11.105469 24.859375 10.527344 24.617188 9.847656 24.617188 C 9.167969 24.617188 8.585938 24.859375 8.105469 25.339844 C 7.625 25.820312 7.382812 26.402344 7.382812 27.082031 Z M 7.382812 27.082031 "/>
</g>
</svg>
